<?xml version="1.0" encoding="utf-8"?>
<!-- Generator: Adobe Illustrator 17.0.0, SVG Export Plug-In . SVG Version: 6.00 Build 0)  -->
<!DOCTYPE svg PUBLIC "-//W3C//DTD SVG 1.1//EN" "http://www.w3.org/Graphics/SVG/1.1/DTD/svg11.dtd">
<svg version="1.1" id="Layer_1" xmlns="http://www.w3.org/2000/svg" xmlns:xlink="http://www.w3.org/1999/xlink" x="0px" y="0px"
	 width="62px" height="62px" viewBox="0 0 62 62" enable-background="new 0 0 62 62" xml:space="preserve">
<g>
	<g>
		<g>
			<path fill="#EA0000" d="M33.141,41.474c19.682-3.035,28.555-12.759,27.477-19.752L1.431,30.847
				C2.51,37.84,13.973,44.429,33.334,41.444"/>
		</g>
	</g>
</g>
<g>
	<g>
		<g>
			<path fill="#AF0000" d="M32.734,38.836c19.682-3.035,28.981-10.001,27.902-16.994L1.45,30.968
				c1.078,6.993,12.117,10.823,31.477,7.838"/>
		</g>
	</g>
</g>
<ellipse transform="matrix(0.9883 -0.1524 0.1524 0.9883 -5.5929 3.7357)" fill="#F70606" cx="21.576" cy="38.357" rx="0.564" ry="0.195"/>
<ellipse transform="matrix(0.9883 -0.1524 0.1524 0.9883 -5.4289 3.0096)" fill="#F70606" cx="16.921" cy="36.924" rx="2.95" ry="0.933"/>
<ellipse transform="matrix(0.9883 -0.1524 0.1524 0.9883 -4.733 5.8432)" fill="#F70606" cx="35.755" cy="33.8" rx="2.56" ry="0.412"/>
<ellipse transform="matrix(0.9883 -0.1524 0.1524 0.9883 -3.8627 7.4409)" fill="#F70606" cx="46.615" cy="28.921" rx="1.801" ry="0.629"/>
<ellipse transform="matrix(0.9883 -0.1524 0.1524 0.9883 -3.5566 8.8096)" fill="#F70606" cx="55.697" cy="27.609" rx="1.649" ry="0.282"/>
<ellipse transform="matrix(0.9883 -0.1524 0.1524 0.9883 -5.5691 5.2077)" fill="#F70606" cx="31.192" cy="38.938" rx="0.304" ry="0.108"/>
<ellipse transform="matrix(0.9883 -0.1524 0.1524 0.9883 -6.0655 3.4035)" fill="#F70606" cx="19.172" cy="41.274" rx="0.955" ry="0.282"/>
<ellipse transform="matrix(0.9883 -0.1524 0.1524 0.9883 -5.8643 4.4834)" fill="#F70606" cx="26.318" cy="40.502" rx="0.889" ry="0.087"/>
<ellipse transform="matrix(0.9883 -0.1524 0.1524 0.9883 -5.2676 7.0235)" fill="#F70606" cx="43.189" cy="37.879" rx="2.126" ry="0.152"/>
<ellipse transform="matrix(0.9883 -0.1524 0.1524 0.9883 -5.7935 5.4133)" fill="#F70606" cx="32.421" cy="40.504" rx="0.282" ry="0.195"/>
<ellipse transform="matrix(0.9883 -0.1524 0.1524 0.9883 -4.5739 8.288)" fill="#F70606" cx="51.785" cy="33.985" rx="0.542" ry="0.13"/>
<ellipse transform="matrix(-0.9883 0.1524 -0.1524 -0.9883 103.1672 63.2878)" fill="#F70606" cx="49.159" cy="35.597" rx="0.347" ry="0.325"/>
</svg>
