<?xml version="1.0" encoding="utf-8"?>
<!-- Generator: Adobe Illustrator 17.0.0, SVG Export Plug-In . SVG Version: 6.00 Build 0)  -->
<!DOCTYPE svg PUBLIC "-//W3C//DTD SVG 1.1//EN" "http://www.w3.org/Graphics/SVG/1.1/DTD/svg11.dtd">
<svg version="1.1" id="Layer_1" xmlns="http://www.w3.org/2000/svg" xmlns:xlink="http://www.w3.org/1999/xlink" x="0px" y="0px"
	 width="62px" height="62px" viewBox="0 0 62 62" enable-background="new 0 0 62 62" xml:space="preserve">
<g>
	<g>
		<g>
			<path fill="#FF9100" d="M4.873,27.413c0,10.813,8.796,19.613,19.607,19.613c10.814,0,19.611-8.8,19.611-19.613v-0.95H4.873
				V27.413z M24.48,45.117c-7.771,0-14.383-5.046-16.757-12.025h33.511C38.867,40.072,32.259,45.117,24.48,45.117z M42.16,28.365
				c-0.063,1.115-0.231,2.204-0.487,3.254H7.293c-0.256-1.05-0.431-2.139-0.488-3.254H42.16z"/>
		</g>
	</g>
	<g>
		<g>
			<path fill="#FF9100" d="M39.818,47.008c-0.475-1.089-1.754-1.586-2.839-1.105c-1.092,0.478-1.589,1.746-1.111,2.84l4.087,9.316
				c0.478,1.088,1.75,1.586,2.839,1.108c1.09-0.477,1.586-1.75,1.112-2.839L39.818,47.008z"/>
		</g>
	</g>
	<g>
		<g>
			<path fill="#FF9100" d="M13.031,45.903c-1.09-0.481-2.362,0.016-2.839,1.105l-4.086,9.32c-0.475,1.089,0.019,2.362,1.106,2.839
				c1.092,0.478,2.362-0.02,2.84-1.108l4.09-9.316C14.62,47.649,14.123,46.382,13.031,45.903z"/>
		</g>
	</g>
	<g>
		<g>
			<path fill="#FF9100" d="M25.194,49.285c-1.052,0-1.904,0.852-1.904,1.902v9.291c0,1.052,0.852,1.905,1.904,1.905
				c1.052,0,1.902-0.853,1.902-1.905v-9.291C27.096,50.137,26.246,49.285,25.194,49.285z"/>
		</g>
	</g>
	<g>
		<g>
			<path fill="#FF9100" d="M31.932,18.652c-0.056-0.264-0.131-0.53-0.259-0.802c-0.237-0.54-0.589-1.08-1.263-1.626h-0.194
				l-0.066,2.428h-5.195v-0.958c0.006-0.293-0.004-0.592,0.007-0.891c-0.285-0.297-0.562-0.598-0.957-0.892
				c-0.396,0.295-0.677,0.595-0.964,0.892c0.02,0.299,0.006,0.598,0.009,0.891v0.958h-4.454c-0.093-0.914-0.32-1.828-0.904-2.741
				c-0.583,0.914-0.807,1.828-0.902,2.741h-3.883v1.658h3.888c0.091,0.922,0.325,1.832,0.898,2.746
				c0.576-0.914,0.81-1.823,0.901-2.746h4.457v0.958v0.894c0.289,0.296,0.573,0.593,0.955,0.894c0.379-0.3,0.662-0.598,0.95-0.894
				v-0.894v-0.958h5.195l0.066,2.43h0.194c0.672-0.543,1.02-1.086,1.257-1.626c0.128-0.269,0.208-0.532,0.26-0.803h27.401v-1.658
				H31.932z"/>
		</g>
	</g>
	<g>
		<g>
			<path fill="#FF9100" d="M21.65,13.362c0.371-2.533,0.724-5.149,2.184-6.493c0.68-0.717,1.921-1.122,3.154-0.961
				c1.238,0.154,2.394,0.737,3.441,1.421c1.037,0.736,2.213,1.463,3.507,1.897c1.272,0.43,2.787,0.856,4.425,0.175
				c0.79-0.366,1.465-1.046,1.782-1.789c0.34-0.743,0.444-1.488,0.445-2.195c-0.019-1.418-0.368-2.723-0.978-3.916l-0.181,0.05
				c-0.011,1.296-0.056,2.572-0.332,3.707c-0.263,1.155-0.779,2.033-1.547,2.28c-0.77,0.317-1.95,0.257-3.1-0.027
				c-1.164-0.306-2.309-0.691-3.557-1.116c-1.263-0.417-2.514-0.789-3.797-1.096c-1.248-0.289-2.799-0.567-4.208,0.3
				c-1.368,0.895-1.882,2.483-2.007,3.823c-0.134,1.379,0.083,2.73,0.585,3.973L21.65,13.362z"/>
		</g>
	</g>
</g>
</svg>
