<?xml version="1.0" encoding="utf-8"?>
<!-- Generator: Adobe Illustrator 17.0.0, SVG Export Plug-In . SVG Version: 6.00 Build 0)  -->
<!DOCTYPE svg PUBLIC "-//W3C//DTD SVG 1.1//EN" "http://www.w3.org/Graphics/SVG/1.1/DTD/svg11.dtd">
<svg version="1.1" id="Layer_1" xmlns="http://www.w3.org/2000/svg" xmlns:xlink="http://www.w3.org/1999/xlink" x="0px" y="0px"
	 width="62px" height="62px" viewBox="0 0 62 62" enable-background="new 0 0 62 62" xml:space="preserve">
<path id="path3364" sodipodi:nodetypes="cssssssssssccssssssssssssccsssccsssssssccsssssssccsssssssc" fill="#FF9100" d="
	M22.749,10.512c-3.024,0.018-6.124,0.319-9.337,0.837c-4.417,0.711-8.22,3.254-10.037,6.271c-1.816,3.019-1.906,6.315,1.202,9.6
	c4.617,4.881,12.306,7.352,20.892,9.392c8.586,2.041,18.002,3.667,25.997,7.389c1.433,0.667,3.549,0.997,5.263,0.801
	c0.856-0.098,1.614-0.323,2.125-0.61c0.513-0.287,0.755-0.577,0.872-0.925c0.769-2.279-0.339-7.29-2.683-12.11
	c-2.345-4.819-5.787-9.55-8.696-11.829C40.165,12.917,31.825,10.461,22.749,10.512z M22.768,12.184
	c8.767-0.05,16.641,2.268,24.551,8.469c2.528,1.982,5.973,6.61,8.225,11.24c1.117,2.297,1.929,4.653,2.369,6.638
	c0.44,1.985,0.415,3.641,0.225,4.198c0.018-0.052,0.184-0.159-0.103,0c-0.225,0.127-0.82,0.342-1.499,0.419
	c-1.349,0.154-3.304-0.172-4.356-0.662c-8.281-3.856-17.815-5.471-26.328-7.493c-8.51-2.022-15.882-4.51-20.055-8.922
	c-1.356-1.434-1.9-2.71-2.004-3.902c-0.102-1.193,0.235-2.387,1.011-3.676c1.499-2.49,4.921-4.851,8.87-5.489
	C16.82,12.498,19.848,12.202,22.768,12.184z M28.741,20.606c-0.046,2.127-2.718,3.793-5.963,3.723
	c-3.244-0.072-5.839-1.856-5.792-3.983c0.047-2.124,2.719-3.792,5.963-3.721C26.193,16.697,28.789,18.48,28.741,20.606z
	 M21.805,14.328c-2.229,0.15-4.231,0.782-5.779,1.91c-1.571,1.144-2.803,3.054-2.391,5.264c0.411,2.213,2.207,3.773,4.1,4.651
	c1.873,0.87,4.044,1.234,6.272,1.084c2.23-0.151,4.23-0.801,5.776-1.927c1.572-1.145,2.788-3.035,2.377-5.248
	c-0.411-2.211-2.209-3.789-4.103-4.667C26.186,14.528,24.032,14.178,21.805,14.328z M21.914,15.983
	c1.973-0.135,3.859,0.206,5.446,0.944c1.566,0.727,2.898,1.978,3.17,3.437c0.271,1.456-0.534,2.716-1.747,3.599
	c-1.236,0.901-2.912,1.469-4.887,1.601c-1.974,0.136-3.875-0.188-5.461-0.923c-1.566-0.728-2.881-1.981-3.153-3.439
	c-0.271-1.458,0.514-2.731,1.726-3.615C18.245,16.687,19.94,16.115,21.914,15.983z M59.119,55.088
	c-2.202,0.764-6.058,0.625-8.246-0.393c-15.506-7.219-37.35-6.566-47.301-17.088c-0.769-0.813-1.649-1.923-2.171-2.931
	C0.8,33.514,1.107,24.053,1.666,25.113c0.371,0.707,1.28,1.797,1.906,2.458c9.951,10.522,31.796,9.87,47.301,17.086
	c2.194,1.023,6.222,1.496,8.267,0.387C60.589,44.259,61.468,54.275,59.119,55.088z"/>
</svg>
