<?xml version="1.0" encoding="utf-8"?>
<!-- Generator: Adobe Illustrator 17.0.0, SVG Export Plug-In . SVG Version: 6.00 Build 0)  -->
<!DOCTYPE svg PUBLIC "-//W3C//DTD SVG 1.1//EN" "http://www.w3.org/Graphics/SVG/1.1/DTD/svg11.dtd">
<svg version="1.1" id="Layer_1" xmlns="http://www.w3.org/2000/svg" xmlns:xlink="http://www.w3.org/1999/xlink" x="0px" y="0px"
	 width="62px" height="62px" viewBox="0 0 62 62" enable-background="new 0 0 62 62" xml:space="preserve">
<g>
	<g>
		<g>
			<g>
				<path fill="#FF9100" d="M60.547,37.468c0,10.267-11.704,18.585-26.142,18.585c-14.435,0-26.139-8.318-26.139-18.585"/>
			</g>
		</g>
	</g>
	<g>
		<g>
			<g>
				<rect x="8.349" y="29.808" fill="#FF9100" width="52.198" height="6.904"/>
			</g>
		</g>
	</g>
	<g>
		<g>
			<g>
				<rect x="27.725" y="55.562" fill="#FF9100" width="13.442" height="2.566"/>
			</g>
		</g>
	</g>
	<g>
		<g>
			<g>
				
					<rect x="1.221" y="19.825" transform="matrix(0.4612 0.8873 -0.8873 0.4612 28.5062 -5.5665)" fill="#FF9100" width="35.23" height="1.725"/>
			</g>
		</g>
	</g>
	<g>
		<g>
			<g>
				
					<rect x="-3.746" y="19.821" transform="matrix(0.6745 0.7383 -0.7383 0.6745 19.7852 -3.5074)" fill="#FF9100" width="35.232" height="1.726"/>
			</g>
		</g>
	</g>
	<g>
		<g>
			<g>
				<path fill="#FF9100" d="M33.353,35.918c-0.046,0-0.095-0.004-0.146-0.011c-0.88-0.082-1.452-0.91-1.832-1.691
					c-0.68,0.652-1.803,0.901-3.319,0.766l0.123-1.301c0.904,0.081,2.06,0.047,2.459-0.624c0.057-0.091,0.106-0.215,0.145-0.367
					c-0.246-0.819-0.317-1.497-0.278-2.071c-0.397-1.158-1.217-2.798-2.77-5.106l-0.117-0.177c-0.69-1.03-0.786-2.768,0.111-3.465
					c1.021-0.794,2.538-0.053,4.524,2.178c2.263,2.534,1.62,3.615,0.548,4.768c-0.417,0.452-0.843,0.904-0.969,1.649
					c0.229,0.753,0.341,1.473,0.287,2.115c0.066,0.211,0.151,0.433,0.25,0.661c0.53,1.263,0.894,1.356,0.957,1.366
					c0.587,0.004,1.798-1.793,2.783-3.28c0.031-0.052,0.067-0.096,0.1-0.148c-0.417-0.449-0.789-0.931-1.105-1.425
					c-0.93,1.543-1.045,3.744-1.045,3.773l-1.305-0.059c0.006-0.145,0.158-3.148,1.676-5.014c-0.222-0.547-0.359-1.1-0.405-1.631
					c-0.162-1.924,0.97-3.292,3.045-3.646c1.972-0.322,3.389,0.438,4.499,1.504c0.678-0.569,1.403-1.077,2.183-1.504
					c3.444-1.862,5.002-2.267,5.735-1.49c0.908,0.952-0.077,2.699-2.392,6.553c-0.433,0.72-1.108,1.666-2.061,1.705
					c-0.022,0-0.043,0-0.06,0c-1.037,0-1.768-1.03-2.609-2.22c-0.287-0.396-0.578-0.812-0.893-1.208
					c-0.392,0.391-0.776,0.801-1.139,1.224c2.691,1.112,5.925,3.08,5.626,4.857c-0.258,1.554-2.722,1.554-3.534,1.554
					c-1.914,0-3.769-0.839-5.25-2.065C35.655,34.378,34.625,35.918,33.353,35.918z M37.896,31.004c1.24,1.072,2.82,1.846,4.53,1.846
					c1.786,0,2.234-0.374,2.251-0.466c0.093-0.547-1.853-2.3-5.199-3.581C38.909,29.533,38.385,30.286,37.896,31.004z
					 M36.017,28.735c0.256,0.451,0.569,0.9,0.94,1.331c0.375-0.551,0.774-1.116,1.206-1.691c-0.835-0.174-1.518-0.061-2.101,0.328
					C36.05,28.715,36.034,28.722,36.017,28.735z M28.635,22.883c-0.051,0-0.086,0.007-0.102,0.022
					c-0.224,0.174-0.221,1.116,0.172,1.708l0.112,0.17c0.801,1.19,1.684,2.588,2.339,3.97c0.223-0.325,0.474-0.59,0.693-0.826
					c0.739-0.798,1.082-1.164-0.567-3.007C29.74,23.197,28.924,22.883,28.635,22.883z M42.447,25.651
					c0.361,0.448,0.684,0.903,0.985,1.326c0.525,0.742,1.178,1.663,1.543,1.663c0.038-0.001,0.37-0.022,0.985-1.046
					c1.147-1.905,2.693-4.483,2.544-5.064c-0.012,0.07-0.736-0.031-4.13,1.803C43.686,24.708,43.047,25.153,42.447,25.651z
					 M37.952,24.416c-0.211,0-0.433,0.015-0.664,0.054c-1.41,0.244-2.066,0.996-1.96,2.247c0.019,0.257,0.078,0.525,0.157,0.802
					c1.002-0.608,2.195-0.692,3.559-0.262c0.484-0.582,1-1.155,1.554-1.695C39.876,24.886,39.023,24.416,37.952,24.416z"/>
			</g>
		</g>
	</g>
</g>
</svg>
