<?xml version="1.0" encoding="utf-8"?>
<!-- Generator: Adobe Illustrator 17.0.0, SVG Export Plug-In . SVG Version: 6.00 Build 0)  -->
<!DOCTYPE svg PUBLIC "-//W3C//DTD SVG 1.1//EN" "http://www.w3.org/Graphics/SVG/1.1/DTD/svg11.dtd">
<svg version="1.1" id="Layer_1" xmlns="http://www.w3.org/2000/svg" xmlns:xlink="http://www.w3.org/1999/xlink" x="0px" y="0px"
	 width="62px" height="62px" viewBox="0 0 62 62" enable-background="new 0 0 62 62" xml:space="preserve">
<g>
	<g>
		<g>
			<path fill="#FF9100" d="M57.512,48.601c-2.319,0-49.912,0-52.749,0c-2.839,0-1.742-5.723-1.742-5.723H59.25
				C59.25,42.878,59.83,48.601,57.512,48.601z"/>
		</g>
	</g>
	<g>
		<g>
			<rect x="2.147" y="31.137" fill="#FF9100" width="57.833" height="4.262"/>
		</g>
	</g>
	<g>
		<g>
			<g>
				<path fill="#FF9100" d="M30.098,38.001c0.445-0.018,0.768,0.173,0.921,0.358c0.327-0.05,0.845-0.158,1.653-0.345
					c1.883-0.443,2.681-0.905,3.308-1.285h-6.666c0.203,0.299,0.375,0.587,0.498,0.811C29.909,37.713,30.035,37.95,30.098,38.001z"
					/>
			</g>
		</g>
		<g>
			<g>
				<path fill="#FF9100" d="M25.467,36.728h-2.643c0.359,0.337,0.51,0.481,1.229,0.501C24.572,37.263,25.032,37.026,25.467,36.728z"
					/>
			</g>
		</g>
		<g>
			<g>
				<polygon fill="#FF9100" points="49.57,36.728 47.621,36.728 48.862,37.146 				"/>
			</g>
		</g>
		<g>
			<g>
				<path fill="#FF9100" d="M9.556,39.075c1.516-0.488,2.85-1.239,4.134-1.963c0.231-0.131,0.459-0.257,0.688-0.383H4.587
					C5.16,37.671,6.878,39.932,9.556,39.075z"/>
			</g>
		</g>
		<g>
			<g>
				<path fill="#FF9100" d="M2.805,37.109l0.781-0.38H0.405v4.259h7.791C5.438,40.887,3.519,38.574,2.805,37.109z"/>
			</g>
		</g>
		<g>
			<g>
				<path fill="#FF9100" d="M61.716,36.728h-6.19l2.536,1.365l-0.815,1.53l-4.795-2.567l-3.396,1.995l-4.299-1.453h-5.803
					c-1.06,0-1.366,0.191-1.997,0.57c-0.694,0.431-1.658,1.018-3.886,1.538c-2.386,0.558-3.041,0.638-3.485,0.067l-0.117-0.157
					c-0.635-0.238-0.949-0.808-1.186-1.249c-0.174-0.323-0.371-0.691-0.701-1.061c0,0.024-0.329,0.27-0.547,0.436
					c-0.701,0.534-1.69,1.272-3.034,1.228c-1.383-0.043-1.908-0.541-2.375-0.982c-0.387-0.364-0.784-0.745-2.109-1.003
					c-1.53-0.299-3.126,0.6-4.969,1.64c-1.303,0.734-2.772,1.559-4.46,2.103c-0.515,0.169-1.005,0.239-1.475,0.257h53.104V36.728z"
					/>
			</g>
		</g>
		<g>
			<g>
				<path fill="#FF9100" d="M8.381,41.007c0.073,0,0.153-0.013,0.231-0.02H8.196C8.261,40.995,8.316,41.007,8.381,41.007z"/>
			</g>
		</g>
		<g>
			<g>
				<path fill="#FF9100" d="M4.369,36.344l-0.783,0.384h1C4.458,36.521,4.387,36.372,4.369,36.344z"/>
			</g>
		</g>
	</g>
	<g>
		<g>
			<path fill="#FF9100" d="M2.794,29.463c4.764-10.54,14.202-18.695,26.522-18.695c0.708,0,4.747,0.025,5.441,0.078
				c11.676,0.796,19.793,8.183,24.147,18.475L2.794,29.463z"/>
		</g>
	</g>
</g>
</svg>
