<?xml version="1.0" encoding="utf-8"?>
<!-- Generator: Adobe Illustrator 17.0.0, SVG Export Plug-In . SVG Version: 6.00 Build 0)  -->
<!DOCTYPE svg PUBLIC "-//W3C//DTD SVG 1.1//EN" "http://www.w3.org/Graphics/SVG/1.1/DTD/svg11.dtd">
<svg version="1.1" id="Layer_1" xmlns="http://www.w3.org/2000/svg" xmlns:xlink="http://www.w3.org/1999/xlink" x="0px" y="0px"
	 width="62px" height="62px" viewBox="0 0 62 62" enable-background="new 0 0 62 62" xml:space="preserve">
<g>
	<path fill="#FFC200" d="M39.413,5.4v52.964c3.112,0,5.627-2.516,5.627-5.625V11.026C45.04,7.915,42.525,5.4,39.413,5.4z"/>
	<path fill="#FFC200" d="M17.449,11.026v41.713c0,3.109,2.518,5.625,5.626,5.625V5.4C19.967,5.4,17.449,7.915,17.449,11.026z"/>
	<path fill="#FFC200" d="M31.248,0.381c-3.608,0-6.531,2.92-6.531,6.525v48.394c0,3.6,2.923,6.524,6.531,6.524
		c3.604,0,6.524-2.924,6.524-6.524V6.906C37.771,3.301,34.851,0.381,31.248,0.381z M36.075,20.494
		c-1.076,2.976-2.458,4.169-3.57,5.126c-1.461,1.265-2.346,2.029-1.253,8.122c0.688,3.868,1.426,4.361,1.452,4.382
		c-0.077-0.066,0.162-0.339,0.252-0.441c0.655-0.752,1.255-0.647,1.646-0.429c0.878,0.485,0.692,1.091,0.129,2.889
		c-0.768,2.497-1.945,3.248-2.992,3.758c-0.105,0.055-0.206,0.092-0.283,0.15c0.094-0.039,0.126,0.459,0.873,2.329
		c0.56,1.396,1.116,2.553,1.57,3.5c1.02,2.13,1.634,3.413,0.913,4.556c-0.611,0.966-1.856,1.168-3.536,1.168
		c-0.013,0-0.02,0-0.034,0l0.006-2.342c0.008,0,0.015,0,0.025,0c0.853,0,1.275-0.059,1.482-0.115
		c-0.111-0.462-0.562-1.405-0.966-2.255c-0.472-0.986-1.049-2.191-1.629-3.637c-1.185-2.948-1.511-4.451,0.556-5.459
		c0.461-0.221,0.968-0.469,1.423-1.408c-0.038-0.008-0.07-0.02-0.108-0.028c-1.459-0.406-2.39-2.262-3.086-6.21
		c-1.259-7.045-0.052-8.504,2.034-10.298c0.994-0.861,2.032-1.758,2.889-4.151c2.184-6.035-4.29-9.87-4.361-9.908l1.179-2.025
		C33.537,9.422,38.344,14.209,36.075,20.494z"/>
</g>
</svg>
