<?xml version="1.0" encoding="utf-8"?>
<!-- Generator: Adobe Illustrator 17.0.0, SVG Export Plug-In . SVG Version: 6.00 Build 0)  -->
<!DOCTYPE svg PUBLIC "-//W3C//DTD SVG 1.1//EN" "http://www.w3.org/Graphics/SVG/1.1/DTD/svg11.dtd">
<svg version="1.1" id="Layer_1" xmlns="http://www.w3.org/2000/svg" xmlns:xlink="http://www.w3.org/1999/xlink" x="0px" y="0px"
	 width="62px" height="62px" viewBox="0 0 62 62" enable-background="new 0 0 62 62" xml:space="preserve">
<g>
	<path fill="#CE0000" d="M18.117,24.876C7.797,29.443,1.027,39.15,1.027,39.15c0.055,0.062,5.129,5.871,9.33,4.34l0.143,1.037
		c-0.529,0.19-1.07,0.277-1.618,0.277c-2.902,0-5.933-2.403-7.499-3.864c2.217,2.772,8.21,9.591,16.001,13.293
		C23.197,44.323,19.026,28.086,18.117,24.876z M11.814,40.086c-1.429,0-2.593-1.163-2.593-2.593c0-1.432,1.164-2.592,2.593-2.592
		c1.432,0,2.595,1.16,2.595,2.592C14.408,38.924,13.246,40.086,11.814,40.086z"/>
	<path fill="#CE0000" d="M51.595,35.954C47.052,30.947,37.999,22.73,27.578,22.73c-2.912,0-5.718,0.648-8.349,1.683
		c0.891,3.025,5.376,19.722-0.747,30.312c2.844,1.213,5.905,1.986,9.096,1.986c11.046,0,20.544-9.227,24.785-14.079l8.375,4.78
		V32.029L51.595,35.954z"/>
	<path fill="#CE0000" d="M30.976,10.594c0.521,0.625,1.072,1.204,1.637,1.784c0.547,0.573,1.041,1.132,1.473,1.719
		c0.417,0.596,0.698,1.235,0.757,1.848c0.078,0.611-0.108,1.242-0.493,1.849c-0.384,0.607-0.926,1.158-1.526,1.679l0.051,0.104
		c0.799-0.197,1.54-0.611,2.161-1.222c0.62-0.599,1.075-1.53,1.01-2.503c-0.065-0.972-0.57-1.781-1.124-2.413
		c-0.551-0.646-1.232-1.141-1.927-1.543c-0.666-0.392-1.285-0.886-1.724-1.522c-0.44-0.633-0.598-1.414-0.551-2.067
		c0.02-0.33,0.089-0.642,0.187-0.961c0.11-0.314,0.27-0.614,0.467-0.917c0.395-0.6,0.928-1.145,1.5-1.703l-0.051-0.101
		c-0.803,0.19-1.533,0.633-2.132,1.258c-0.588,0.614-1.036,1.539-0.906,2.466C29.903,9.288,30.48,9.978,30.976,10.594z"/>
	<path fill="#CE0000" d="M40.19,10.594c0.516,0.625,1.066,1.204,1.633,1.784c0.544,0.573,1.047,1.132,1.474,1.719
		c0.414,0.596,0.692,1.235,0.757,1.848c0.077,0.611-0.11,1.242-0.496,1.849c-0.382,0.607-0.925,1.158-1.519,1.679l0.046,0.104
		c0.802-0.197,1.542-0.611,2.159-1.222c0.623-0.599,1.079-1.53,1.01-2.503c-0.064-0.972-0.574-1.781-1.121-2.413
		c-0.554-0.646-1.238-1.141-1.93-1.543c-0.663-0.392-1.291-0.886-1.721-1.522c-0.443-0.633-0.604-1.414-0.554-2.067
		c0.023-0.33,0.091-0.642,0.185-0.961c0.11-0.314,0.273-0.614,0.469-0.917c0.395-0.6,0.93-1.145,1.504-1.703l-0.05-0.101
		c-0.809,0.19-1.539,0.633-2.141,1.258c-0.58,0.614-1.03,1.539-0.902,2.466C39.113,9.288,39.689,9.978,40.19,10.594z"/>
	<path fill="#CE0000" d="M20.927,10.594c0.515,0.625,1.063,1.204,1.631,1.784c0.544,0.573,1.041,1.132,1.47,1.719
		c0.424,0.596,0.694,1.235,0.757,1.848c0.078,0.611-0.107,1.242-0.495,1.849c-0.379,0.607-0.924,1.158-1.52,1.679l0.052,0.104
		c0.796-0.197,1.535-0.611,2.155-1.222c0.623-0.599,1.077-1.53,1.012-2.503c-0.065-0.972-0.571-1.781-1.127-2.413
		c-0.552-0.646-1.235-1.141-1.926-1.543c-0.666-0.392-1.288-0.886-1.724-1.522c-0.441-0.633-0.598-1.414-0.551-2.067
		c0.017-0.33,0.087-0.642,0.187-0.961c0.11-0.314,0.271-0.614,0.467-0.917c0.392-0.6,0.926-1.145,1.504-1.703L22.77,4.625
		c-0.808,0.19-1.538,0.633-2.135,1.258c-0.584,0.614-1.036,1.539-0.909,2.466C19.842,9.288,20.419,9.978,20.927,10.594z"/>
</g>
</svg>
