<?xml version="1.0" encoding="utf-8"?>
<!-- Generator: Adobe Illustrator 17.0.0, SVG Export Plug-In . SVG Version: 6.00 Build 0)  -->
<!DOCTYPE svg PUBLIC "-//W3C//DTD SVG 1.1//EN" "http://www.w3.org/Graphics/SVG/1.1/DTD/svg11.dtd">
<svg version="1.1" id="Layer_1" xmlns="http://www.w3.org/2000/svg" xmlns:xlink="http://www.w3.org/1999/xlink" x="0px" y="0px"
	 width="62px" height="62px" viewBox="0 0 62 62" enable-background="new 0 0 62 62" xml:space="preserve">
<g>
	<g>
		<g>
			<g>
				<path fill="#CE0000" d="M43.921,25.742c-1.138-0.335-2.37-1.002-3.52-1.982c-2.63-2.238-3.796-5.181-2.606-6.57
					c0.187-0.221,0.43-0.364,0.7-0.488L29.157,1.123L7.573,46.987c2.165,1.013,4.396,1.948,6.755,2.666
					c12.555,3.838,25.431,2.507,36.445-2.688c0,0,3.469-1.434,3.985-3.14L43.921,25.742z M35.643,19.713
					c1.496,1.274,1.679,3.524,0.404,5.025c-1.28,1.5-3.518,1.684-5.025,0.402c-1.503-1.276-1.677-3.529-0.41-5.029
					C31.894,18.616,34.14,18.429,35.643,19.713z M20.802,39.481c-2.136-1.823-2.392-5.025-0.574-7.166
					c1.821-2.134,5.031-2.397,7.167-0.574c2.136,1.818,2.397,5.031,0.572,7.168C26.15,41.042,22.945,41.3,20.802,39.481z
					 M35.831,41.09c-1.388-1.187-1.554-3.273-0.377-4.667c1.196-1.392,3.286-1.558,4.674-0.373c1.388,1.183,1.556,3.273,0.377,4.669
					C39.315,42.11,37.232,42.279,35.831,41.09z"/>
			</g>
		</g>
	</g>
	<g>
		<g>
			<g>
				<path fill="#CE0000" d="M29.155,60.728c-15.181,0-25.27-5.989-25.932-6.389l3.178-5.221l-1.587,2.613l1.582-2.615
					c0.925,0.56,22.887,13.404,50.783-2.203l2.981,5.334C48.665,58.674,38.04,60.728,29.155,60.728z"/>
			</g>
		</g>
	</g>
</g>
</svg>
