<?xml version="1.0" encoding="utf-8"?>
<!-- Generator: Adobe Illustrator 17.0.0, SVG Export Plug-In . SVG Version: 6.00 Build 0)  -->
<!DOCTYPE svg PUBLIC "-//W3C//DTD SVG 1.1//EN" "http://www.w3.org/Graphics/SVG/1.1/DTD/svg11.dtd">
<svg version="1.1" id="Layer_1" xmlns="http://www.w3.org/2000/svg" xmlns:xlink="http://www.w3.org/1999/xlink" x="0px" y="0px"
	 width="62px" height="62px" viewBox="0 0 62 62" enable-background="new 0 0 62 62" xml:space="preserve">
<path id="path4273" fill="#FFC200" d="M54.136,11.108c1.632,0.05,3.187,0.965,3.974,2.523c0.61,1.208,0.624,2.553,0.174,3.721
	c1.209,0.334,2.282,1.153,2.891,2.361c1.145,2.265,0.236,5.033-2.029,6.176c-1.897,0.959-4.147,0.476-5.501-1.035l-9.271,4.689
	c-0.307-0.478-0.773-0.785-1.18-0.937c-0.467-0.175-0.71-0.248-0.87-0.29c0.134-0.221,0.372-0.522,0.648-0.852
	c0.291-0.349,0.608-0.712,0.86-1.063c0.126-0.175,0.242-0.352,0.328-0.542c0.087-0.189,0.175-0.41,0.097-0.725
	c-0.004-0.025-0.012-0.052-0.019-0.077c-0.023-0.057-0.048-0.116-0.087-0.164c-0.173-0.219-0.513-0.306-0.705-0.289
	c-0.192,0.016-0.316,0.075-0.435,0.125c-0.237,0.1-0.441,0.209-0.668,0.29c-0.332,0.12-0.649,0.114-1.005-0.048
	c0.152-0.302,0.334-0.586,0.513-0.84c0.132-0.189,0.276-0.346,0.347-0.658c0.036-0.156,0.037-0.369-0.047-0.56
	c-0.085-0.193-0.235-0.337-0.378-0.427c-0.073-0.045-0.157-0.076-0.241-0.086c-0.264-0.039-0.377,0.021-0.513,0.066
	c-0.135,0.047-0.276,0.109-0.416,0.174c-0.278,0.131-0.582,0.282-0.87,0.416c-0.167,0.077-0.271,0.105-0.406,0.154
	c0.037-0.077,0.059-0.132,0.117-0.231c0.199-0.348,0.55-0.822,0.454-1.479l9.61-4.854c-0.412-1.986,0.52-4.09,2.417-5.046
	C52.631,11.244,53.395,11.085,54.136,11.108z M61.233,20.563c-0.289,0.809-1.144,1.892-1.885,2.33
	c-1.727,1.022-3.877,0.712-5.249-0.629l-7.686,4.515l-0.861,0.928l8.044-3.791c1.239,1.463,3.355,1.995,5.171,1.141
	c0.679-0.319,1.239-0.798,1.653-1.362C61.077,22.801,61.377,21.679,61.233,20.563z M38.316,20.793
	c1.487,1.176-0.406,2.464-0.087,3.2c0.282,0.647,2.371-0.833,2.795-0.774c0.564,0.354-0.533,0.962-0.9,2.253
	c1.489,1.279,2.82-0.363,3.123,0.018c0.168,0.681-2.613,2.927-1.982,3.45c0.536,0.429,2.125,0.23,2.379,1.693
	c-1.21-0.044-1.932,0.293-2.253,1.046c-2.324,5.439-10.645,14.782-18.204,18.599c-11.019,5.565-18.049,1.497-21.134-4.612
	c-3.084-6.109-2.173-14.177,8.846-19.741c7.33-3.702,19.414-4.477,25.194-3.287C36.34,22.688,38.001,21.935,38.316,20.793z
	 M2.837,35.36c-0.699,2.922-0.154,5.85,1.14,8.412c2.915,5.771,9.564,9.607,19.974,4.35c4.764-2.405,9.841-7.128,13.351-11.532
	c-3.887,3.946-9.216,7.98-14.047,9.87c-10.862,4.248-17.115-0.204-19.471-6.225C3.176,38.68,2.828,37.03,2.837,35.36z"/>
</svg>
