<?xml version="1.0" encoding="utf-8"?>
<!-- Generator: Adobe Illustrator 17.0.0, SVG Export Plug-In . SVG Version: 6.00 Build 0)  -->
<!DOCTYPE svg PUBLIC "-//W3C//DTD SVG 1.1//EN" "http://www.w3.org/Graphics/SVG/1.1/DTD/svg11.dtd">
<svg version="1.1" id="Layer_1" xmlns="http://www.w3.org/2000/svg" xmlns:xlink="http://www.w3.org/1999/xlink" x="0px" y="0px"
	 width="50px" height="50px" viewBox="0 0 50 50" enable-background="new 0 0 50 50" xml:space="preserve">
<g>
	<g>
		<g>
			<path fill="#FFC200" d="M25.602,36.748c0.458,0.046,0.88,0.137,1.249,0.263c0.373,0.126,0.695,0.288,0.951,0.474
				c0.259,0.188,0.451,0.402,0.562,0.631c0.111,0.232,0.14,0.479,0.067,0.731c-0.074,0.255-0.243,0.489-0.488,0.695
				c-0.247,0.208-0.57,0.386-0.947,0.526c-0.379,0.14-0.811,0.241-1.273,0.294c-0.463,0.052-0.953,0.056-1.448,0.003
				c-0.493-0.053-0.941-0.159-1.328-0.303c-0.384-0.142-0.706-0.323-0.952-0.529c-0.243-0.204-0.411-0.431-0.49-0.671
				c-0.078-0.237-0.068-0.484,0.041-0.731c0.109-0.244,0.305-0.465,0.566-0.655c0.259-0.189,0.582-0.347,0.948-0.47
				c0.364-0.122,0.771-0.21,1.201-0.255C24.692,36.705,25.145,36.702,25.602,36.748z"/>
		</g>
		<g>
			<path fill="#FFC200" d="M26.303,34.841c0.964,0.092,1.856,0.276,2.648,0.531c0.802,0.257,1.505,0.59,2.08,0.977
				c0.584,0.394,1.037,0.847,1.319,1.337c0.289,0.501,0.4,1.043,0.291,1.602c-0.112,0.572-0.445,1.107-0.957,1.582
				c-0.523,0.485-1.228,0.905-2.069,1.238c-0.853,0.337-1.837,0.581-2.899,0.709c-1.068,0.129-2.202,0.139-3.343,0.009
				c-1.135-0.129-2.157-0.383-3.028-0.728c-0.859-0.34-1.564-0.766-2.085-1.246c-0.511-0.471-0.841-0.99-0.968-1.53
				c-0.123-0.527-0.052-1.072,0.237-1.607c0.282-0.523,0.744-0.991,1.336-1.389c0.581-0.391,1.289-0.718,2.078-0.969
				c0.779-0.248,1.642-0.423,2.548-0.513C24.392,34.754,25.342,34.748,26.303,34.841z M23.615,42.166
				c0.968,0.108,1.93,0.1,2.836-0.007c0.901-0.107,1.74-0.311,2.468-0.595c0.72-0.28,1.327-0.634,1.78-1.045
				c0.446-0.403,0.741-0.858,0.848-1.347c0.105-0.479,0.021-0.945-0.218-1.377c-0.234-0.424-0.617-0.817-1.115-1.16
				c-0.492-0.337-1.097-0.627-1.79-0.853c-0.685-0.223-1.459-0.384-2.296-0.465c-0.835-0.081-1.661-0.076-2.444,0.002
				c-0.786,0.079-1.535,0.233-2.209,0.451c-0.681,0.22-1.29,0.505-1.787,0.847c-0.504,0.346-0.895,0.752-1.128,1.204
				c-0.238,0.462-0.288,0.929-0.172,1.381c0.12,0.46,0.412,0.902,0.857,1.302c0.452,0.406,1.058,0.766,1.793,1.053
				C21.781,41.845,22.651,42.058,23.615,42.166L23.615,42.166z"/>
		</g>
		<g>
			<path fill="#FFC200" d="M27.63,31.221c1.931,0.171,3.738,0.508,5.374,0.983c1.674,0.485,3.19,1.118,4.48,1.868
				c1.337,0.779,2.446,1.691,3.232,2.703c0.823,1.06,1.299,2.238,1.306,3.487c0.007,1.318-0.506,2.588-1.476,3.748
				c-1.016,1.215-2.521,2.295-4.414,3.169c-1.957,0.903-4.296,1.569-6.872,1.922c-2.611,0.359-5.404,0.389-8.2,0.032
				c-2.763-0.352-5.199-1.041-7.206-1.963c-1.942-0.892-3.45-1.987-4.47-3.19c-0.974-1.149-1.494-2.386-1.534-3.633
				c-0.039-1.186,0.357-2.377,1.201-3.517c0.804-1.083,1.945-2.027,3.305-2.814c1.309-0.757,2.837-1.38,4.489-1.851
				c1.613-0.459,3.365-0.78,5.181-0.943C23.825,31.061,25.715,31.052,27.63,31.221z M21.714,47.349
				c2.328,0.288,4.652,0.265,6.827-0.024c2.151-0.285,4.116-0.824,5.777-1.557c1.615-0.715,2.919-1.604,3.823-2.61
				c0.87-0.967,1.361-2.034,1.413-3.152c0.049-1.067-0.308-2.08-0.973-2.998c-0.639-0.881-1.566-1.682-2.703-2.368
				c-1.102-0.665-2.41-1.228-3.864-1.661c-1.426-0.424-3.008-0.727-4.704-0.88c-1.684-0.152-3.345-0.144-4.927,0.003
				c-1.595,0.147-3.128,0.435-4.532,0.846c-1.435,0.42-2.752,0.973-3.87,1.645c-1.155,0.694-2.108,1.52-2.758,2.465
				c-0.679,0.985-0.965,2.008-0.879,3.019c0.09,1.057,0.584,2.096,1.456,3.054c0.906,0.997,2.211,1.897,3.866,2.627
				C17.364,46.506,19.408,47.064,21.714,47.349L21.714,47.349z"/>
		</g>
	</g>
	<g>
		<g>
			<path fill="#FFC200" d="M22.782,44.436c1.564,0.183,3.122,0.169,4.584-0.013c1.452-0.181,2.792-0.526,3.942-0.998
				c1.128-0.465,2.062-1.049,2.738-1.719c0.657-0.651,1.066-1.379,1.174-2.151c0.104-0.748-0.084-1.467-0.501-2.128
				c-0.405-0.641-1.029-1.229-1.817-1.738c-0.771-0.497-1.704-0.923-2.756-1.251c-1.037-0.324-2.198-0.556-3.448-0.674
				c-1.245-0.117-2.474-0.109-3.642,0.003c-1.175,0.113-2.299,0.335-3.319,0.649c-1.036,0.32-1.975,0.737-2.756,1.24
				c-0.799,0.514-1.438,1.121-1.846,1.807c-0.42,0.707-0.556,1.431-0.43,2.138c0.13,0.728,0.538,1.436,1.195,2.081
				c0.674,0.663,1.608,1.255,2.762,1.731C19.837,43.897,21.228,44.255,22.782,44.436c-1.554-0.181-2.945-0.539-4.12-1.023
				c-1.154-0.475-2.087-1.068-2.762-1.731c-0.657-0.645-1.065-1.353-1.195-2.081c-0.126-0.707,0.01-1.431,0.43-2.138
				c0.408-0.685,1.047-1.293,1.846-1.807c0.781-0.503,1.719-0.92,2.756-1.24c1.02-0.314,2.144-0.535,3.319-0.649
				c1.167-0.112,2.396-0.12,3.642-0.003c1.251,0.117,2.411,0.35,3.448,0.674c1.052,0.328,1.985,0.753,2.756,1.251
				c0.789,0.509,1.412,1.097,1.817,1.738c0.417,0.66,0.605,1.38,0.501,2.128c-0.107,0.773-0.517,1.5-1.174,2.151
				c-0.676,0.669-1.61,1.254-2.738,1.719c-1.15,0.473-2.49,0.818-3.942,0.998C25.904,44.606,24.346,44.619,22.782,44.436z"/>
		</g>
		<g>
			<path fill="#FFC200" d="M26.946,33.085c1.432,0.132,2.765,0.394,3.958,0.759c1.215,0.372,2.298,0.853,3.2,1.42
				c0.926,0.581,1.668,1.256,2.162,1.995c0.511,0.763,0.76,1.599,0.671,2.474c-0.093,0.908-0.542,1.767-1.288,2.541
				c-0.772,0.799-1.854,1.499-3.174,2.058c-1.351,0.572-2.934,0.989-4.655,1.209c-1.737,0.222-3.59,0.239-5.449,0.017
				c-1.843-0.221-3.489-0.653-4.87-1.237c-1.351-0.573-2.434-1.282-3.205-2.073c-0.747-0.766-1.196-1.603-1.317-2.459
				c-0.117-0.828,0.072-1.671,0.59-2.49c0.499-0.79,1.26-1.486,2.2-2.074c0.914-0.573,2.004-1.047,3.201-1.407
				c1.175-0.355,2.466-0.605,3.811-0.732C24.117,32.961,25.522,32.954,26.946,33.085z M22.782,44.436
				c1.564,0.183,3.122,0.169,4.584-0.013c1.452-0.181,2.792-0.526,3.942-0.998c1.128-0.465,2.062-1.049,2.738-1.719
				c0.657-0.651,1.066-1.379,1.174-2.151c0.104-0.748-0.084-1.467-0.501-2.128c-0.405-0.641-1.029-1.229-1.817-1.738
				c-0.771-0.497-1.704-0.923-2.756-1.251c-1.037-0.324-2.198-0.556-3.448-0.674c-1.245-0.117-2.474-0.109-3.642,0.003
				c-1.175,0.113-2.299,0.335-3.319,0.649c-1.036,0.32-1.975,0.737-2.756,1.24c-0.799,0.514-1.438,1.121-1.846,1.807
				c-0.42,0.707-0.556,1.431-0.43,2.138c0.13,0.728,0.538,1.436,1.195,2.081c0.674,0.663,1.608,1.255,2.762,1.731
				C19.837,43.897,21.228,44.255,22.782,44.436L22.782,44.436z"/>
		</g>
	</g>
</g>
<g>
	<g>
		<path fill="#FF9100" d="M27.084,36.922c0.383-0.888,0.767-1.776,1.15-2.664c0.005-0.011,0.009-0.021,0.014-0.03
			c0.005-0.01,0.01-0.019,0.015-0.028c0.005-0.009,0.01-0.018,0.016-0.026c0.005-0.008,0.011-0.016,0.017-0.023l-1.146,2.658
			c-0.006,0.007-0.012,0.016-0.018,0.024c-0.006,0.009-0.012,0.018-0.017,0.028c-0.006,0.009-0.011,0.019-0.016,0.029
			C27.094,36.899,27.089,36.91,27.084,36.922z"/>
	</g>
	<g>
	</g>
	<g>
		<path fill="#FF9100" d="M30.6,24.22c0.306-0.583,0.613-1.166,0.919-1.75c0.007-0.013,0.015-0.025,0.025-0.037
			c0.009-0.011,0.019-0.022,0.031-0.032c0.011-0.01,0.024-0.019,0.038-0.026c0.014-0.008,0.029-0.015,0.045-0.02l-0.907,1.741
			c-0.018,0.006-0.035,0.013-0.049,0.022c-0.015,0.008-0.029,0.017-0.041,0.028c-0.012,0.01-0.023,0.022-0.034,0.034
			C30.616,24.193,30.607,24.205,30.6,24.22z"/>
	</g>
	<g>
		<path fill="#FF9100" d="M23.762,9.63c0.111-0.001,0.317,0.005,0.599,0.048c0.283,0.044,0.642,0.125,1.057,0.274
			c0.417,0.15,0.889,0.368,1.399,0.684c0.51,0.318,1.057,0.734,1.619,1.28c0.439,0.382,0.909,0.933,1.379,1.637
			c0.469,0.702,0.936,1.555,1.371,2.537c0.433,0.979,0.832,2.085,1.166,3.299c0.333,1.207,0.6,2.515,0.772,3.907
			c-0.038,0.033-0.067,0.066-0.093,0.098c-0.027,0.032-0.049,0.064-0.075,0.095c-0.025,0.031-0.052,0.062-0.086,0.092
			c-0.034,0.03-0.075,0.059-0.129,0.086c0.259,0.24,0.421,0.489,0.519,0.726c0.097,0.236,0.13,0.462,0.13,0.659
			c0,0.197-0.034,0.365-0.068,0.488c-0.034,0.122-0.071,0.199-0.077,0.213c-0.081,0.197-0.182,0.381-0.297,0.545
			c-0.115,0.164-0.243,0.308-0.377,0.427c-0.134,0.12-0.273,0.213-0.411,0.276c-0.138,0.062-0.274,0.094-0.4,0.088
			c-0.087-0.004-0.17-0.026-0.247-0.066c-0.076-0.041-0.145-0.102-0.206-0.184c-0.06-0.082-0.111-0.185-0.151-0.313
			c-0.04-0.128-0.067-0.278-0.081-0.455c-0.009-0.121-0.068-0.293-0.144-0.486c-0.075-0.193-0.167-0.406-0.24-0.611
			c-0.073-0.204-0.128-0.401-0.13-0.557c-0.002-0.157,0.05-0.275,0.19-0.322c-0.024,0.005-0.046,0.009-0.068,0.011
			c-0.021,0.003-0.042,0.006-0.062,0.008c-0.02,0.001-0.039,0.003-0.057,0.004c-0.019,0-0.036,0-0.053,0
			c-0.048-0.002-0.09-0.008-0.127-0.016c-0.037-0.008-0.068-0.019-0.095-0.031c-0.026-0.011-0.048-0.024-0.065-0.035
			c-0.017-0.011-0.03-0.021-0.039-0.029c-0.283-0.879-0.502-1.625-0.693-2.293c-0.191-0.67-0.355-1.261-0.528-1.828
			c-0.173-0.569-0.355-1.113-0.584-1.69c-0.229-0.578-0.505-1.189-0.866-1.888c-0.004,0.065-0.03,0.422-0.053,0.966
			c-0.023,0.542-0.044,1.269-0.04,2.077c0.003,0.804,0.03,1.687,0.103,2.55c0.073,0.859,0.191,1.699,0.376,2.423
			c0.185,0.721,0.477,1.744,0.817,2.909c0.338,1.157,0.722,2.452,1.092,3.729c0.368,1.268,0.723,2.518,1.008,3.598
			c0.283,1.074,0.498,1.982,0.587,2.576c0.024,0.015,0.155,0.095,0.34,0.225c0.186,0.13,0.426,0.31,0.669,0.523
			c0.243,0.213,0.488,0.46,0.683,0.725c0.195,0.263,0.338,0.545,0.38,0.827L26.99,38.89c-0.002-0.021-0.012-0.138-0.022-0.307
			c-0.009-0.169-0.019-0.39-0.018-0.621c0.001-0.232,0.012-0.473,0.042-0.68c0.031-0.207,0.08-0.38,0.157-0.475l-0.754-0.158
			c-0.007-0.08-0.044-0.518-0.111-1.187c-0.067-0.671-0.165-1.576-0.291-2.582c-0.127-1.013-0.284-2.131-0.47-3.217
			c-0.187-1.093-0.402-2.154-0.645-3.038c-0.114-0.415-0.213-0.733-0.297-0.975c-0.085-0.242-0.155-0.409-0.213-0.523
			c-0.057-0.114-0.101-0.177-0.133-0.211c-0.032-0.034-0.052-0.039-0.06-0.039c-0.012-0.001-0.036,0.003-0.069,0.034
			c-0.034,0.031-0.078,0.09-0.132,0.2c-0.053,0.11-0.116,0.271-0.187,0.506c-0.07,0.235-0.149,0.544-0.233,0.949
			c-0.181,0.862-0.322,1.898-0.432,2.967c-0.109,1.06-0.188,2.154-0.245,3.146c-0.056,0.984-0.091,1.87-0.111,2.527
			c-0.02,0.654-0.028,1.084-0.029,1.162l-0.726,0.043c0.082,0.106,0.142,0.284,0.185,0.494c0.043,0.21,0.07,0.45,0.087,0.679
			c0.017,0.229,0.023,0.447,0.025,0.613c0.002,0.166,0,0.279-0.001,0.3l-6.032-0.505c0.019-0.261,0.131-0.507,0.289-0.729
			c0.159-0.222,0.365-0.422,0.572-0.59c0.207-0.168,0.416-0.305,0.577-0.403c0.162-0.098,0.277-0.156,0.298-0.166
			c0.044-0.559,0.182-1.403,0.375-2.4c0.194-1.006,0.443-2.172,0.704-3.358c0.264-1.198,0.54-2.42,0.783-3.516
			c0.245-1.106,0.456-2.083,0.584-2.776c0.129-0.696,0.186-1.511,0.199-2.348c0.013-0.842-0.02-1.705-0.07-2.493
			c-0.05-0.791-0.119-1.502-0.177-2.033c-0.058-0.532-0.106-0.882-0.115-0.945c-0.297,0.675-0.519,1.263-0.697,1.819
			c-0.178,0.553-0.313,1.075-0.439,1.62c-0.125,0.542-0.239,1.107-0.374,1.745c-0.135,0.635-0.289,1.343-0.496,2.173
			c-0.008,0.007-0.019,0.016-0.034,0.025c-0.015,0.01-0.034,0.02-0.058,0.03c-0.023,0.009-0.052,0.018-0.085,0.023
			c-0.033,0.006-0.072,0.009-0.117,0.007c-0.016-0.001-0.032-0.001-0.049-0.003c-0.017-0.002-0.035-0.004-0.053-0.007
			s-0.038-0.007-0.058-0.011c-0.02-0.005-0.041-0.01-0.063-0.016c0.132,0.055,0.187,0.172,0.196,0.322
			c0.008,0.151-0.029,0.335-0.084,0.527c-0.054,0.191-0.125,0.39-0.182,0.569c-0.057,0.179-0.101,0.34-0.101,0.455
			c-0.001,0.168-0.017,0.311-0.045,0.43c-0.028,0.119-0.068,0.215-0.118,0.288c-0.05,0.073-0.109,0.126-0.176,0.159
			c-0.067,0.033-0.141,0.046-0.221,0.043c-0.115-0.006-0.24-0.046-0.369-0.117c-0.128-0.071-0.261-0.171-0.389-0.295
			c-0.128-0.124-0.252-0.271-0.366-0.435c-0.114-0.164-0.216-0.346-0.3-0.538c-0.007-0.014-0.044-0.089-0.083-0.207
			c-0.039-0.118-0.079-0.28-0.092-0.466c-0.013-0.187,0.002-0.397,0.074-0.615c0.072-0.218,0.202-0.442,0.418-0.654
			c-0.05-0.03-0.088-0.059-0.121-0.089c-0.032-0.03-0.059-0.061-0.083-0.092c-0.024-0.031-0.047-0.063-0.073-0.095
			c-0.025-0.032-0.054-0.065-0.09-0.098c0.066-1.306,0.223-2.533,0.445-3.663c0.224-1.142,0.514-2.184,0.844-3.108
			c0.333-0.933,0.707-1.745,1.094-2.418c0.39-0.678,0.792-1.213,1.179-1.585c0.494-0.536,0.989-0.95,1.461-1.268
			c0.474-0.321,0.924-0.544,1.327-0.701c0.405-0.157,0.76-0.246,1.043-0.295c0.284-0.051,0.494-0.061,0.608-0.062
			c0.016,0,0.029,0,0.041,0c0.012,0,0.022,0,0.03,0c0.008,0,0.014,0.001,0.018,0.001c0.004,0,0.006,0,0.007,0c0,0,0.003,0,0.007,0
			c0.004-0.001,0.01-0.001,0.018-0.001c0.008-0.001,0.017-0.001,0.029-0.001C23.733,9.63,23.746,9.63,23.762,9.63z"/>
	</g>
	<g>
		<g>
			<path fill="#FF9100" d="M23.378,1.156c0.528-0.021,1.037,0.073,1.503,0.261c0.468,0.189,0.893,0.473,1.252,0.83
				c0.36,0.357,0.655,0.786,0.862,1.267c0.207,0.479,0.328,1.009,0.34,1.566c0.012,0.555-0.084,1.086-0.267,1.567
				c-0.183,0.48-0.453,0.913-0.789,1.276c-0.335,0.361-0.734,0.655-1.181,0.86c-0.443,0.204-0.933,0.32-1.449,0.327
				c-0.514,0.007-1.006-0.094-1.456-0.283c-0.449-0.189-0.858-0.466-1.206-0.81c-0.347-0.344-0.635-0.757-0.842-1.218
				c-0.207-0.462-0.334-0.974-0.358-1.515c-0.025-0.543,0.054-1.065,0.22-1.546c0.167-0.481,0.42-0.921,0.742-1.295
				c0.323-0.376,0.717-0.687,1.16-0.909C22.356,1.311,22.851,1.178,23.378,1.156z"/>
		</g>
	</g>
</g>
</svg>
